<?xml version="1.0" encoding="utf-8"?>
<!-- Generator: Adobe Illustrator 23.0.0, SVG Export Plug-In . SVG Version: 6.00 Build 0)  -->
<svg version="1.1" id="Layer_1" xmlns="http://www.w3.org/2000/svg" xmlns:xlink="http://www.w3.org/1999/xlink" x="0px" y="0px"
	 viewBox="0 0 1242 200" style="enable-background:new 0 0 1242 200;" xml:space="preserve">
<g id="_x31_">
	<g>
		<polygon style="fill:#32332E;" points="1027.09,157.8 31,157.8 192.03,19.4 1190.02,19.4 		"/>
		<path style="fill:#F4F4F4;stroke:#32332E;stroke-width:2;stroke-miterlimit:10;" d="M33.06,159.14l1.6,8.27
			c0.08,0.39,0,6.08,0.77,6.08l996.91,4.4c0.53,0-0.27,0.24,0,0l159.51-140.88c0.15-0.13,0.02-6.45,0-6.6l-1.63-8.04
			c-0.09-0.76-1.15-2.47-2.78-0.35l-158.58,135.91c-0.27,0.23-0.76,0.37-1.28,0.37H34.55C33.67,158.29,32.98,158.69,33.06,159.14z"
			/>

			<line style="fill:none;stroke:#32332E;stroke-width:2;stroke-miterlimit:10;" x1="1031.35" y1="155.84" x2="1032.34" y2="177.89"/>
	</g>
	<g>
		<polygon style="fill:#DAD9D5;" points="849.77,125.12 994.68,125.06 1043.42,61.22 902.41,59.03 		"/>
		<polyline style="fill:none;stroke:#555248;stroke-miterlimit:10;" points="901.35,60.17 902.19,79.97 919.89,79.23 920.92,103.42
			940.84,102.59 941.62,124.18 		"/>
		<line style="fill:none;stroke:#555248;stroke-miterlimit:10;" x1="868.85" y1="125.33" x2="902.19" y2="79.97"/>
		<line style="fill:none;stroke:#555248;stroke-miterlimit:10;" x1="887" y1="125.83" x2="919.89" y2="79.23"/>
		<line style="fill:none;stroke:#555248;stroke-miterlimit:10;" x1="907.41" y1="124.91" x2="920.92" y2="103.42"/>
		<line style="fill:none;stroke:#555248;stroke-miterlimit:10;" x1="926.37" y1="127.43" x2="940.84" y2="102.59"/>
	</g>
</g>
<text transform="matrix(1.0064 0 0 1 191.0469 134.8691)" style="fill:#DAD9D5; font-family:'HUSET'; font-size:118.1859px;">1</text>
<polygon style="fill:none;" points="1284.38,169.09 307.7,169.09 366.31,83.24 1343,83.24 "/>
<text transform="matrix(0.9537 0 -0.3194 0.9476 352.2416 121.1095)" style="fill:#DAD9D5; font-family:'AvenirNext-Medium'; font-size:52.8657px;">BALSALEN</text>
</svg>
