<?xml version="1.0" encoding="utf-8"?>
<!-- Generator: Adobe Illustrator 23.0.0, SVG Export Plug-In . SVG Version: 6.00 Build 0)  -->
<svg version="1.1" id="Layer_1" xmlns="http://www.w3.org/2000/svg" xmlns:xlink="http://www.w3.org/1999/xlink" x="0px" y="0px"
	 viewBox="0 0 750 150" style="enable-background:new 0 0 750 150;" xml:space="preserve">
<g>
	<g>
		<g>
			<path style="fill:#FFFFFF;" d="M26.31,121.97c8.03,0,16.06,0,24.09,0c21.27,0,42.54,0,63.81,0c30.3,0,60.59,0,90.89,0
				c35.1,0,70.2,0,105.3,0c35.52,0,71.05,0,106.57,0c32.07,0,64.14,0,96.22,0c24.23,0,48.47,0,72.7,0c12.18,0,24.35,0,36.53,0
				c2.92,0,3.7-1.07,5.82-3.23c8.59-8.75,17.19-17.5,25.78-26.25c21.68-22.07,43.35-44.13,65.03-66.2c1.43-1.45,2.85-2.91,4.28-4.36
				c0.91-0.92,0.25-2.56-1.06-2.56c-8.03,0-16.05,0-24.08,0c-21.27,0-42.54,0-63.81,0c-30.3,0-60.6,0-90.9,0
				c-35.12,0-70.23,0-105.35,0c-35.56,0-71.12,0-106.68,0c-32.13,0-64.27,0-96.4,0c-24.33,0-48.65,0-72.98,0
				c-12.31,0-24.61,0-36.92,0c-2.89,0-3.6,0.84-5.7,3c-8.43,8.68-16.86,17.37-25.3,26.05c-21.55,22.19-43.09,44.39-64.64,66.58
				c-1.42,1.47-2.85,2.93-4.27,4.4c-1.35,1.39,0.77,3.51,2.12,2.12c16.93-17.43,33.85-34.86,50.78-52.3
				c11.15-11.48,22.3-22.97,33.45-34.45c3.33-3.43,6.66-6.86,9.98-10.28c0.73-0.75,1.52-1.48,2.21-2.28
				c0.69-0.8-1.08,0.18-0.64,0.15c9-0.55,18.2,0,27.22,0c21.91,0,43.81,0,65.72,0c30.74,0,61.48,0,92.21,0c35.12,0,70.23,0,105.35,0
				c35.46,0,70.92,0,106.39,0c31.65,0,63.3,0,94.96,0c23.69,0,47.37,0,71.06,0c7.56,0,15.12,0,22.67,0c3.82,0,8.24,0.62,12.02,0
				c0.48-0.08,1.04,0,1.53,0c-0.35-0.85-0.71-1.71-1.06-2.56c-17,17.31-34.01,34.62-51.01,51.93
				c-11.27,11.48-22.55,22.95-33.82,34.43c-3.42,3.48-6.84,6.96-10.26,10.44c-0.77,0.79-1.69,1.55-2.37,2.42
				c-0.7,0.89,0.51-0.06,0.59-0.07c-8.78,0.79-18,0-26.81,0c-21.81,0-43.61,0-65.42,0c-30.67,0-61.34,0-92.01,0
				c-35.07,0-70.15,0-105.22,0c-35.44,0-70.88,0-106.32,0c-31.64,0-63.29,0-94.93,0c-23.69,0-47.37,0-71.06,0
				c-11.55,0-23.16-0.33-34.7,0c-0.51,0.01-1.02,0-1.53,0C24.38,118.97,24.38,121.97,26.31,121.97z"/>
		</g>
	</g>
	<g>
		<g>
			<path style="fill:#FFFFFF;" d="M626.53,135.98c0.02,0.02,0.04,0.04,0.06,0.06c1.31,1.42,3.43-0.71,2.12-2.12
				c-0.02-0.02-0.04-0.04-0.06-0.06C627.33,132.44,625.22,134.57,626.53,135.98c0.02,0.02,0.04,0.04,0.06,0.06
				c1.31,1.42,3.43-0.71,2.12-2.12c-0.02-0.02-0.04-0.04-0.06-0.06C627.33,132.44,625.22,134.57,626.53,135.98L626.53,135.98z"/>
		</g>
	</g>
	<g>
		<g>
			<path style="fill:#FFFFFF;" d="M628.65,135.98c17.33-18.34,34.66-36.69,51.99-55.03c11.05-11.7,22.11-23.4,33.16-35.1
				c3.01-3.19,6.03-6.38,9.04-9.57c2.43-2.58,2.05-4.33,2.05-8.07c0-1.81,1-6.82-0.74-8.14c-1.73-1.32-3.48,0.64-4.62,1.77
				c-2.14,2.1-4.19,4.31-6.28,6.45c-10.38,10.67-20.77,21.33-31.15,32c-12.36,12.69-24.72,25.39-37.08,38.08
				c-4.53,4.65-9.05,9.3-13.58,13.95c-1.95,2-4.29,5.55-6.75,6.93c-0.14,0.08-0.07,0-1.06,0.08c-1.44,0.12-2.93,0-4.37,0
				c-5.88,0-11.75,0-17.63,0c-21.68,0-43.37,0-65.05,0c-31.13,0-62.26,0-93.4,0c-36.03,0-72.06,0-108.09,0
				c-36.22,0-72.44,0-108.66,0c-32.21,0-64.41,0-96.62,0c-23.48,0-46.95,0-70.43,0c-7.04,0-14.08,0-21.13,0
				c-3.06,0-6.41-0.39-9.46,0c-3.9,0.5-2.4,3.86-2,6.77c0.35,2.58-0.54,6.45,2.5,7.17c2.78,0.66,6.49,0.03,9.32,0.05
				c17.31,0.09,34.61,0.18,51.92,0.27c28.33,0.15,56.65,0.3,84.98,0.45c34.82,0.18,69.65,0.37,104.47,0.55
				c36.8,0.19,73.6,0.39,110.4,0.58c34.25,0.18,68.51,0.36,102.76,0.54c27.18,0.14,54.37,0.29,81.55,0.43
				c15.56,0.08,31.11,0.16,46.67,0.25c2.08,0.01,4.16,0.02,6.23,0.03c1.93,0.01,1.93-2.99,0-3c-8.18-0.04-16.35-0.09-24.53-0.13
				c-21.64-0.11-43.27-0.23-64.91-0.34c-30.76-0.16-61.51-0.33-92.27-0.49c-35.53-0.19-71.07-0.38-106.6-0.56
				c-36.13-0.19-72.26-0.38-108.38-0.57c-32.04-0.17-64.07-0.34-96.11-0.51c-23.77-0.13-47.54-0.25-71.31-0.38
				c-11.08-0.06-22.42,0.57-33.49-0.18c-0.17-0.01-0.74,0.1-0.87,0c1.14,0.86,0.93-2.41,0.82-3.44c-0.14-1.25-0.16-3.8-0.78-4.83
				c-0.85-1.4,0.1,0.5-0.64,0.33c0.21,0.05,0.54-0.09,0.73,0c0.84,0.41,2.94,0,3.87,0c2.3,0,4.6,0,6.89,0c17.79,0,35.58,0,53.36,0
				c28.32,0,56.64,0,84.96,0c34.48,0,68.96,0,103.45,0c36.28,0,72.56,0,108.83,0c33.7,0,67.41,0,101.11,0c26.76,0,53.53,0,80.29,0
				c15.49,0,30.98,0,46.48,0c1.98,0,4.49,0.42,6.45-0.03c2.19-0.51,3.74-2.85,5.24-4.39c3.8-3.9,7.6-7.81,11.4-11.71
				c22.98-23.6,45.96-47.2,68.93-70.8c3.14-3.23,6.28-6.45,9.42-9.68c0.5-0.51,1.49-1.19,1.8-1.84c0.71-1.51,0.1-3.38,0.17-1.34
				c0.07,2.04,0,4.1,0,6.15c0,1.36,0.25,2.97,0,4.32c-0.09,0.47,0.65-1.07,0.14-0.23c-0.5,0.83-1.51,1.6-2.17,2.3
				c-3.35,3.54-6.7,7.09-10.04,10.63c-22.69,24.02-45.38,48.03-68.07,72.05c-5.07,5.37-10.15,10.74-15.22,16.11
				C625.2,135.27,627.32,137.39,628.65,135.98L628.65,135.98z"/>
		</g>
	</g>
	<g>
		<g>
			<path style="fill:#FFFFFF;" d="M629.09,134.92c-0.2-5.29-0.4-10.58-0.59-15.87c-0.07-1.92-3.07-1.93-3,0
				c0.2,5.29,0.4,10.58,0.59,15.87C626.16,136.85,629.16,136.86,629.09,134.92L629.09,134.92z"/>
		</g>
	</g>
	<g>
		<g>
			<path style="fill:#FFFFFF;" d="M547.64,49.58c-10.32,15.54-20.65,31.07-30.97,46.61c-0.64,0.96,0.21,2.26,1.3,2.26
				c3.85,0,7.7,0,11.55-0.01c1.93,0,1.93-3,0-3c-3.85,0-7.7,0-11.55,0.01c0.43,0.75,0.86,1.5,1.3,2.26
				c10.33-15.54,20.65-31.07,30.98-46.61C551.3,49.48,548.7,47.98,547.64,49.58L547.64,49.58z"/>
		</g>
	</g>
	<g>
		<g>
			<path style="fill:#FFFFFF;" d="M564.77,95.43c-8.05,0-16.1,0.01-24.15,0.01c-1.93,0-1.93,3,0,3c8.05,0,16.1-0.01,24.15-0.01
				C566.7,98.42,566.7,95.42,564.77,95.43L564.77,95.43z"/>
		</g>
	</g>
	<g>
		<g>
			<path style="fill:#FFFFFF;" d="M529.51,98.44c3.7,0,7.4,0,11.11-0.01c1.93,0,1.93-3,0-3c-3.7,0-7.4,0-11.11,0.01
				C527.58,95.44,527.58,98.44,529.51,98.44L529.51,98.44z"/>
		</g>
	</g>
	<g>
		<g>
			<path style="fill:#FFFFFF;" d="M550.23,51.1c0.72-1.09-1.23-0.1-0.29-0.2c0.49-0.05,1.06,0,1.55,0.03
				c1.96,0.1,3.93,0.07,5.88,0.11c6.64,0.12,13.27,0.25,19.91,0.37c15.41,0.29,30.81,0.58,46.22,0.86c3.58,0.07,7.15,0.13,10.73,0.2
				c-0.43-0.75-0.86-1.5-1.3-2.26c-7.36,11.55-14.71,23.1-22.07,34.64c-1.74,2.73-3.48,5.46-5.22,8.2c-0.38,0.6-1.38,1.67-1.53,2.4
				c-0.28,1.43-1.23-0.43,0.72-0.04c-2.06-0.41-4.62,0-6.72,0c-4.09,0-8.18,0-12.27,0.01c-7.03,0-14.06,0.01-21.09,0.01
				c-1.93,0-1.93,3,0,3c6.04,0,12.09-0.01,18.13-0.01c4.55,0,9.09,0,13.64-0.01c2.47,0,5.51,0.48,7.94,0
				c3.1-0.61,4.98-5.74,6.57-8.24c4.78-7.5,9.56-15.01,14.34-22.51c3.38-5.31,6.77-10.62,10.15-15.93c0.63-0.98-0.2-2.24-1.3-2.26
				c-25.72-0.48-51.44-0.96-77.16-1.44c-3.08-0.06-7.55-1.3-9.44,1.55C546.57,51.19,549.16,52.7,550.23,51.1L550.23,51.1z"/>
		</g>
	</g>
	<g>
		<g>
			<path style="fill:#FFFFFF;" d="M549.43,65.96c3.54-0.18,7.09-0.35,10.63-0.53c1.92-0.1,1.93-3.1,0-3
				c-3.54,0.18-7.09,0.35-10.63,0.53C547.51,63.05,547.5,66.05,549.43,65.96L549.43,65.96z"/>
		</g>
	</g>
	<g>
		<g>
			<path style="fill:#FFFFFF;" d="M547.43,50.21c0,0.04,0,0.08,0,0.13c0.03,0.78,0.67,1.54,1.5,1.5c0.79-0.04,1.53-0.66,1.5-1.5
				c0-0.04,0-0.08,0-0.13c-0.03-0.78-0.67-1.54-1.5-1.5C548.14,48.75,547.4,49.37,547.43,50.21L547.43,50.21z"/>
		</g>
	</g>
	<g>
		<g>
			<path style="fill:#FFFFFF;" d="M547.43,50.34c0.17,4.71,0.33,9.41,0.5,14.12c0.07,1.93,3.07,1.93,3,0
				c-0.17-4.71-0.33-9.41-0.5-14.12C550.37,48.41,547.37,48.4,547.43,50.34L547.43,50.34z"/>
		</g>
	</g>
	<g>
		<g>
			<path style="fill:#FFFFFF;" d="M572.64,79.23c-3.99,0.2-7.97,0.4-11.96,0.6c-1.92,0.1-1.93,3.1,0,3c3.99-0.2,7.97-0.4,11.96-0.6
				C574.56,82.14,574.57,79.14,572.64,79.23L572.64,79.23z"/>
		</g>
	</g>
	<g>
		<g>
			<path style="fill:#FFFFFF;" d="M562.18,81.33c-0.2-5.8-0.41-11.61-0.61-17.41c-0.07-1.93-3.07-1.93-3,0
				c0.2,5.8,0.41,11.61,0.61,17.41C559.25,83.26,562.25,83.27,562.18,81.33L562.18,81.33z"/>
		</g>
	</g>
	<g>
		<g>
			<path style="fill:#FFFFFF;" d="M574.61,96.27c-0.16-5.18-0.31-10.36-0.47-15.54c-0.06-1.93-3.06-1.93-3,0
				c0.16,5.18,0.31,10.36,0.47,15.54C571.67,98.2,574.67,98.21,574.61,96.27L574.61,96.27z"/>
		</g>
	</g>
	<g>
		<g>
			<path style="fill:#FFFFFF;" d="M548.14,63.7c-6.64,10.83-13.28,21.66-19.92,32.49c-1.01,1.65,1.58,3.16,2.59,1.51
				c6.64-10.83,13.28-21.66,19.92-32.49C551.74,63.56,549.15,62.05,548.14,63.7L548.14,63.7z"/>
		</g>
	</g>
	<g>
		<g>
			<path style="fill:#FFFFFF;" d="M528.22,96.18c-0.03,0.05-0.07,0.11-0.1,0.16c-0.42,0.69-0.15,1.65,0.54,2.05
				c0.71,0.42,1.63,0.15,2.05-0.54c0.03-0.05,0.07-0.11,0.1-0.16c0.42-0.69,0.15-1.65-0.54-2.05
				C529.56,95.23,528.64,95.49,528.22,96.18L528.22,96.18z"/>
		</g>
	</g>
	<g>
		<g>
			<path style="fill:#FFFFFF;" d="M540.62,98.44c1.93,0,1.93-3,0-3C538.69,95.44,538.69,98.44,540.62,98.44L540.62,98.44z"/>
		</g>
	</g>
	<g>
		<g>
			<path style="fill:#FFFFFF;" d="M541.65,97.49c6.57-10.94,13.14-21.87,19.71-32.81c1-1.66-1.6-3.17-2.59-1.51
				c-6.57,10.94-13.14,21.87-19.71,32.81C538.07,97.63,540.66,99.14,541.65,97.49L541.65,97.49z"/>
		</g>
	</g>
	<g>
		<g>
			<path style="fill:#FFFFFF;" d="M559.38,80.58c-2.7,5.16-5.41,10.31-8.11,15.47c-0.9,1.71,1.69,3.23,2.59,1.51
				c2.7-5.16,5.41-10.31,8.11-15.47C562.87,80.38,560.28,78.86,559.38,80.58L559.38,80.58z"/>
		</g>
	</g>
	<g>
		<g>
			<path style="fill:#FFFFFF;" d="M566.07,97.68c2.62-5.4,5.25-10.79,7.87-16.19c0.84-1.73-1.75-3.25-2.59-1.51
				c-2.62,5.4-5.25,10.79-7.87,16.19C562.63,97.9,565.22,99.42,566.07,97.68L566.07,97.68z"/>
		</g>
	</g>
	<g>
		<g>
			<path style="fill:#FFFFFF;" d="M566.22,97.32c0.02-0.07,0.04-0.13,0.06-0.2c0.22-0.75-0.27-1.67-1.05-1.85
				c-0.8-0.18-1.61,0.24-1.85,1.05c-0.02,0.07-0.04,0.13-0.06,0.2c-0.22,0.75,0.27,1.67,1.05,1.85
				C565.18,98.56,565.98,98.13,566.22,97.32L566.22,97.32z"/>
		</g>
	</g>
</g>
<text transform="matrix(0.8398 0 0 1 121.4824 106.5283)" style="fill:none;stroke:#FFFFFF;stroke-miterlimit:10; font-family:'HUSET'; font-size:107.6664px;">9</text>
<text transform="matrix(0.8398 0 0 1 179.231 106.5283)" style="fill:none;stroke:#FFFFFF;stroke-width:2;stroke-miterlimit:10; font-family:'Avenir-BlackOblique'; font-size:46.9817px;">BASTERD CAFÈ</text>
</svg>
