<?xml version="1.0" encoding="utf-8"?>
<!-- Generator: Adobe Illustrator 23.0.0, SVG Export Plug-In . SVG Version: 6.00 Build 0)  -->
<svg version="1.1" id="Layer_1" xmlns="http://www.w3.org/2000/svg" xmlns:xlink="http://www.w3.org/1999/xlink" x="0px" y="0px"
	 viewBox="0 0 1000 525.7" style="enable-background:new 0 0 1000 525.7;" xml:space="preserve">
<style type="text/css">
	.st0{fill:#FFFFFF;stroke:#000000;stroke-miterlimit:10;}
</style>
<path class="st0" d="M499.86,524.84c-6.3,0-12.61-2.4-17.44-7.22L7.94,43.91C0.89,36.88-1.22,26.29,2.61,17.1
	C6.41,7.91,15.4,1.9,25.37,1.9h423.41c13.61,0,24.64,11.01,24.64,24.63c0,13.59-11.03,24.6-24.64,24.6H84.89l414.97,414.3
	l414.97-414.3H552.73c-13.61,0-24.64-11.01-24.64-24.6c0-13.62,11.03-24.63,24.64-24.63h421.62c9.97,0,18.97,6,22.77,15.2
	c3.83,9.19,1.71,19.78-5.36,26.81L517.3,517.63C512.47,522.45,506.17,524.84,499.86,524.84L499.86,524.84z"/>
</svg>
